<?xml version="1.0" encoding="UTF-8" standalone="no"?>
<svg
   viewBox="0 0 148.71203 22.86433"
   height="22.864328"
   width="148.71204"
   id="svg5317"
   version="1.1"
   sodipodi:docname="logo.svg"
   inkscape:version="1.1 (c68e22c387, 2021-05-23)"
   xmlns:inkscape="http://www.inkscape.org/namespaces/inkscape"
   xmlns:sodipodi="http://sodipodi.sourceforge.net/DTD/sodipodi-0.dtd"
   xmlns="http://www.w3.org/2000/svg"
   xmlns:svg="http://www.w3.org/2000/svg"
   xmlns:rdf="http://www.w3.org/1999/02/22-rdf-syntax-ns#"
   xmlns:cc="http://creativecommons.org/ns#"
   xmlns:dc="http://purl.org/dc/elements/1.1/">
  <sodipodi:namedview
     id="namedview268"
     pagecolor="#ffffff"
     bordercolor="#666666"
     borderopacity="1.0"
     inkscape:pageshadow="2"
     inkscape:pageopacity="0.0"
     inkscape:pagecheckerboard="0"
     showgrid="false"
     inkscape:zoom="0.48931566"
     inkscape:cx="-298.3759"
     inkscape:cy="336.18381"
     inkscape:window-width="1366"
     inkscape:window-height="703"
     inkscape:window-x="0"
     inkscape:window-y="0"
     inkscape:window-maximized="1"
     inkscape:current-layer="svg5317"
     fit-margin-top="0"
     fit-margin-left="0"
     fit-margin-right="0"
     fit-margin-bottom="0" />
  <metadata
     id="metadata5323">
    <rdf:RDF>
      <cc:Work
         rdf:about="">
        <dc:format>image/svg+xml</dc:format>
        <dc:type
           rdf:resource="http://purl.org/dc/dcmitype/StillImage" />
      </cc:Work>
    </rdf:RDF>
  </metadata>
  <defs
     id="defs5321" />
  <path
     id="path5327"
     d="M 10.095113,22.76483 C 6.3195153,22.298499 2.9711453,19.984887 1.2405873,16.646636 0.2898013,14.812577 -0.0121827,13.49814 3.7329716e-4,11.248459 0.0086733,9.7638902 0.0300433,9.5692947 0.2963273,8.5539056 c 0.83091,-3.1683165 2.998692,-5.8630851 5.913434,-7.350984 0.801007,-0.40888953 1.465873,-0.6577379 2.513812,-0.94086755 0.998582,-0.26979269 3.5717087,-0.33943582 4.7089557,-0.12744884 2.862692,0.53361646 5.456952,2.14212259 7.177852,4.45044369 0.99622,1.3362669 1.82009,3.2585777 2.11126,4.9261295 0.1539,0.8813756 0.1539,2.8674936 0,3.7488716 -0.39104,2.23948 -1.45665,4.34692 -3.01992,5.97244 -1.6926,1.760002 -3.67551,2.871207 -5.994887,3.359483 -0.990683,0.208557 -2.6714,0.288998 -3.611721,0.172857 z m 2.256422,-4.11589 c 2.978656,-0.405075 5.385696,-2.535244 6.171646,-5.461743 0.26564,-0.989095 0.26379,-2.620645 -0.004,-3.6191598 -0.69372,-2.5857674 -2.69356,-4.5887239 -5.269446,-5.2776354 -1.03187,-0.2759684 -2.642406,-0.2768743 -3.6574377,-0.00205 -2.682386,0.7262479 -4.672578,2.7344531 -5.357274,5.4057539 -0.193876,0.7564173 -0.168904,2.8225603 0.04257,3.5202333 0.898854,2.965649 2.984281,4.860204 5.9402857,5.3966 0.833693,0.151281 1.246721,0.158639 2.133756,0.03801 z m 12.739076,-7.21586 c 0,-7.8416831 0.0299,-11.43123439 0.0949,-11.43123439 0.0522,0 2.49206,1.90773209 5.42188,4.23940589 2.92981,2.3316722 5.4106,4.2916628 5.51288,4.3555321 0.17031,0.1063602 0.6418,-0.2468839 5.60686,-4.2006679 2.9815,-2.3742362 5.47782,-4.33862768 5.54736,-4.36531417 0.10722,-0.04114435 0.12644,1.69069337 0.12644,11.39074747 v 11.439277 h -2.01104 -2.01104 l -0.0234,-7.271638 -0.0234,-7.271628 -3.50671,2.791266 c -1.92869,1.535202 -3.5334,2.790895 -3.56601,2.790431 -0.0326,-4.34e-4 -1.63287,-1.254603 -3.55616,-2.786974 l -3.49687,-2.7861208 -0.0234,7.2444688 -0.0234,7.244477 -2.03445,0.02461 -2.03445,0.02461 z m 24.59627,-0.0017 c 0,-7.5004949 0.0312,-11.42948457 0.0907,-11.42948457 0.0499,0 3.10502,2.39868647 6.78913,5.33041507 3.6841,2.9317299 7.74761,6.1647275 9.02999,7.1844535 l 2.33162,1.854044 0.0234,-7.1844514 0.0234,-7.18446117 h 2.01104 2.01104 V 11.391034 c 0,8.98723 -0.0237,11.37452 -0.11243,11.319688 -0.0618,-0.03822 -1.51223,-1.184819 -3.22311,-2.548009 C 56.267131,10.28705 53.793731,8.3225416 53.754451,8.3225416 c -0.0245,0 -0.0444,3.2711124 -0.0444,7.2691504 v 7.269158 h -2.0116 -2.01158 z m 87.732809,11.373282 c -1.84224,-0.193341 -3.68163,-0.568283 -5.16614,-1.053063 -0.82618,-0.269802 -2.56021,-1.025044 -2.56021,-1.115083 0,-0.0233 0.69849,-0.602077 1.55218,-1.286182 l 1.55217,-1.243828 0.51348,0.227085 c 1.18638,0.524675 2.64161,0.898937 4.11093,1.057267 3.38091,0.364319 6.17571,-0.972635 6.1675,-2.950342 -0.004,-1.113991 -0.72016,-1.847506 -2.48778,-2.550337 -0.26503,-0.105378 -1.5219,-0.453204 -2.79305,-0.772947 -1.27113,-0.319743 -2.69067,-0.731869 -3.15454,-0.915834 -2.2364,-0.886965 -3.55735,-2.09533 -4.15221,-3.7983133 -0.31259,-0.8948745 -0.39119,-2.3928646 -0.17395,-3.3151479 0.59373,-2.5207193 2.90911,-4.34059431 6.29503,-4.94787157 1.37135,-0.24595458 4.53657,-0.15552531 6.08277,0.17378228 1.23474,0.26297607 2.47306,0.63870739 3.50773,1.06429759 0.85846,0.353123 1.99843,1.0023785 1.99843,1.1381948 0,0.057487 -0.66028,0.6312621 -1.46728,1.2750579 l -1.46729,1.1705367 -0.79771,-0.3706327 c -2.89766,-1.3463123 -5.9637,-1.6630201 -7.82964,-0.8087651 -1.0845,0.4964992 -1.72876,1.4045355 -1.72908,2.4369802 0,0.7129898 0.21084,1.1806969 0.75437,1.67174 0.71716,0.6479131 1.68434,1.0120036 4.5642,1.7181798 3.23823,0.7940563 4.80778,1.4968303 6.00886,2.6905623 1.12543,1.11854 1.51328,2.089978 1.51486,3.794594 0.002,1.73123 -0.50195,2.984095 -1.65385,4.114618 -1.27709,1.253405 -2.93099,2.016495 -5.25803,2.425988 -0.80618,0.141864 -3.20824,0.245395 -3.93175,0.169463 z M 74.283161,11.385615 V 0.00184835 h 2.01158 2.0116 V 11.385615 22.769393 h -2.0116 -2.01158 z m 16.52122,11.240684 c -3.92614,-0.610835 -7.07951,-2.656419 -8.87087,-5.754524 -0.71448,-1.235663 -1.19481,-2.649626 -1.31236,-3.86317 l -0.0553,-0.571477 h 2.02307 2.02307 l 0.0525,0.25145 c 0.41589,1.991953 1.53554,3.686961 3.14777,4.765368 1.19216,0.79742 2.27114,1.164567 3.70662,1.261248 3.43798,0.231554 6.65055,-2.113872 7.53842,-5.50362 0.18076,-0.690139 0.18792,-0.955224 0.18792,-6.9635838 V 0.00184835 h 2.011589 2.01159 V 6.5335405 c 0,5.4724575 -0.0224,6.6380515 -0.13798,7.1875905 -0.82832,3.937691 -3.756489,7.20542 -7.615139,8.498184 -1.5937,0.533938 -3.07326,0.661761 -4.71086,0.406984 z m 23.939189,-0.04107 c -2.74592,-0.56308 -5.0893,-2.004044 -6.76368,-4.159045 -1.05544,-1.358394 -1.65066,-2.566837 -2.13543,-4.335429 l -0.24023,-0.876422 -0.0289,-6.6062397 -0.0289,-6.60624701 h 2.01138 2.0114 l 0.0297,6.24050381 c 0.029,6.1062409 0.0341,6.2562319 0.23148,6.9719829 1.03924,3.767563 4.80077,6.151629 8.50025,5.387479 2.88973,-0.596892 5.00567,-2.594808 5.80255,-5.478915 0.19762,-0.71523 0.20285,-0.869165 0.23527,-6.926265 l 0.0332,-6.19478571 h 2.01033 2.0103 l -0.0316,6.56052941 -0.0316,6.5605213 -0.2436,0.914359 c -0.29998,1.125884 -0.52252,1.709181 -1.01039,2.648307 -1.59747,3.075011 -4.70543,5.342499 -8.14489,5.942289 -1.1246,0.196115 -3.15223,0.175619 -4.21652,-0.04262 z"
     style="fill:#ff7f2a;fill-opacity:1;stroke-width:0.0914358" />
</svg>
